<?xml version="1.0" encoding="utf-8"?>
<!-- Generator: Adobe Illustrator 27.7.0, SVG Export Plug-In . SVG Version: 6.00 Build 0)  -->
<svg version="1.1" id="linkedin" xmlns="http://www.w3.org/2000/svg" xmlns:xlink="http://www.w3.org/1999/xlink" x="0px" y="0px"
	 viewBox="0 0 64 64" style="enable-background:new 0 0 64 64;" xml:space="preserve">
<style type="text/css">
	.st0{fill:#1F2937;}
</style>
<path class="st0" d="M59.3,0H4.7C2.1,0,0,2.1,0,4.6v54.8C0,61.9,2.1,64,4.7,64h54.5c2.6,0,4.7-2.1,4.7-4.6V4.6C64,2.1,61.9,0,59.3,0
	z M19.4,53.6H9.7V24.7h9.7V53.6z M14.6,20.7L14.6,20.7c-3.3,0-5.4-2.2-5.4-5c0-2.8,2.2-5,5.5-5c3.3,0,5.3,2.2,5.4,5
	C20,18.5,17.9,20.7,14.6,20.7z M54.3,53.6h-9.7V38.1c0-3.9-1.4-6.5-4.9-6.5c-2.7,0-4.3,1.8-5,3.5c-0.3,0.6-0.3,1.5-0.3,2.3v16.1
	h-9.7c0,0,0.1-26.2,0-28.9h9.7v4.1c1.3-2,3.6-4.8,8.7-4.8c6.4,0,11.1,4.1,11.1,13C54.3,37,54.3,53.6,54.3,53.6z M34.4,28.9
	C34.4,28.8,34.4,28.8,34.4,28.9L34.4,28.9L34.4,28.9z"/>
</svg>
