<?xml version="1.0" encoding="UTF-8"?>
<svg id="Layer_1" data-name="Layer 1" xmlns="http://www.w3.org/2000/svg" viewBox="0 0 238.46 64.49">
  <defs>
    <style>
      .cls-1 {
        fill: #100e0f;
        stroke-width: 0px;
      }
    </style>
  </defs>
  <path class="cls-1" d="m45.93,27.6h-20.04c-.52,0-.94.42-.94.94v9.8c0,.52.42.94.94.94h7.82v12.17s-1.76.6-6.61.6c-5.73,0-13.72-2.09-13.72-19.68S21.7,12.46,29.52,12.46c6.77,0,9.68,1.19,11.54,1.77.58.18,1.12-.4,1.12-.92l2.24-9.47c0-.24-.08-.53-.36-.73-.75-.54-5.35-3.11-16.96-3.11C13.72,0,0,5.69,0,33.05s15.71,31.44,28.95,31.44c10.96,0,17.61-4.68,17.61-4.68.27-.15.3-.53.3-.71v-30.55c0-.52-.42-.94-.94-.94h0Z"/>
  <path class="cls-1" d="m149.19,3.28c0-.52-.41-.94-.93-.94h-11.28c-.52,0-.93.42-.93.94v21.8h-17.59V3.28c0-.52-.42-.94-.93-.94h-11.28c-.51,0-.93.42-.93.94v59.04c0,.52.42.94.93.94h11.28c.52,0,.93-.42.93-.94v-25.25h17.59l-.03,25.25c0,.52.42.94.93.94h11.31c.52,0,.93-.42.93-.94V3.28Z"/>
  <g>
    <path class="cls-1" d="m67.22,11.03c0-4.06-3.26-7.35-7.28-7.35s-7.27,3.28-7.27,7.35,3.26,7.35,7.27,7.35,7.28-3.29,7.28-7.35Z"/>
    <path class="cls-1" d="m66.41,49.86v-27.25c0-.52-.42-.94-.93-.94h-11.25c-.52,0-.98.53-.98,1.05v39.04c0,1.15.72,1.49,1.64,1.49h10.13c1.11,0,1.38-.55,1.38-1.51v-11.88h.01Z"/>
  </g>
  <path class="cls-1" d="m192.07,21.76h-11.2c-.51,0-.93.42-.93.94v28.95s-2.84,2.08-6.88,2.08-5.11-1.83-5.11-5.78v-25.24c0-.52-.42-.94-.93-.94h-11.36c-.51,0-.93.42-.93.94v27.16c0,11.74,6.54,14.61,15.55,14.61,7.38,0,13.34-4.08,13.34-4.08,0,0,.28,2.15.41,2.4s.46.51.82.51l7.23-.03c.51,0,.93-.42.93-.94V22.7c0-.52-.42-.94-.94-.94h0Z"/>
  <path class="cls-1" d="m222.67,20.43c-6.36,0-10.68,2.84-10.68,2.84V3.28c0-.52-.42-.94-.93-.94h-11.31c-.51,0-.93.42-.93.94v59.04c0,.52.42.94.93.94h7.85c.35,0,.62-.18.82-.5.19-.32.48-2.72.48-2.72,0,0,4.63,4.38,13.38,4.38,10.28,0,16.18-5.22,16.18-23.41s-9.42-20.58-15.78-20.58h-.01Zm-4.42,33.26c-3.88-.12-6.52-1.88-6.52-1.88v-18.7s2.6-1.59,5.79-1.88c4.03-.36,7.92.86,7.92,10.47,0,10.14-1.75,12.14-7.19,11.98h0Z"/>
  <path class="cls-1" d="m98.84,21.66h-8.46v-11.18c-.01-.42-.23-.63-.72-.63h-11.53c-.45,0-.69.2-.69.63v11.55s-5.78,1.4-6.17,1.51-.68.47-.68.9v7.26c0,.52.42.94.93.94h5.91v17.47c0,12.97,9.1,14.25,15.24,14.25,2.81,0,6.16-.9,6.72-1.11.34-.12.53-.47.53-.85v-7.99c0-.52-.43-.94-.93-.94s-1.75.2-3.05.2c-4.16,0-5.57-1.93-5.57-4.43v-16.6h8.46c.52,0,.93-.42.93-.94v-9.09c0-.52-.42-.94-.93-.94h.01Z"/>
</svg>